<svg width="32" height="32" viewBox="0 0 32 32" xmlns="http://www.w3.org/2000/svg">
  <defs>
    <linearGradient id="g" x1="0%" y1="0%" x2="100%" y2="100%">
      <stop offset="0%" stop-color="#0f5228"/>
      <stop offset="100%" stop-color="#1a7a3c"/>
    </linearGradient>
  </defs>

  <!-- Shield -->
  <path d="M16,2 L28,7 L28,17 Q28,26 16,30 Q4,26 4,17 L4,7 Z" fill="url(#g)"/>

  <!-- Book left page -->
  <path d="M8,11 L8,22 Q8,23.5 9.5,23.5 L15,23.5 L15,10 L9.5,10 Q8,10 8,11 Z"
    fill="rgba(255,255,255,0.18)"/>
  <!-- Book right page -->
  <path d="M17,10 L17,23.5 L22.5,23.5 Q24,23.5 24,22 L24,11 Q24,10 22.5,10 Z"
    fill="rgba(255,255,255,0.28)"/>
  <!-- Spine -->
  <rect x="15" y="9.5" width="2" height="14.5" rx="1" fill="rgba(255,255,255,0.50)"/>

  <!-- Lines left page -->
  <line x1="9.5" y1="13.5" x2="14"  y2="13.5" stroke="rgba(255,255,255,0.40)" stroke-width="1.2" stroke-linecap="round"/>
  <line x1="9.5" y1="16"   x2="14"  y2="16"   stroke="rgba(255,255,255,0.28)" stroke-width="1"   stroke-linecap="round"/>
  <line x1="9.5" y1="18.5" x2="14"  y2="18.5" stroke="rgba(255,255,255,0.28)" stroke-width="1"   stroke-linecap="round"/>

  <!-- Circuit dots right page -->
  <circle cx="18.5" cy="13.5" r="1.2" fill="#4ede80" opacity="0.90"/>
  <circle cx="21.5" cy="13.5" r="1.2" fill="#4ede80" opacity="0.65"/>
  <line x1="19.7" y1="13.5" x2="20.3" y2="13.5" stroke="#4ede80" stroke-width="1" opacity="0.55"/>
  <circle cx="18.5" cy="16.5" r="1"   fill="#4ede80" opacity="0.65"/>
  <circle cx="21.5" cy="16.5" r="1"   fill="#4ede80" opacity="0.55"/>
  <line x1="19.5" y1="16.5" x2="20.5" y2="16.5" stroke="#4ede80" stroke-width="1" opacity="0.40"/>
  <line x1="21.5" y1="13.5" x2="21.5" y2="15.5" stroke="#4ede80" stroke-width="1" opacity="0.40"/>

  <!-- Spark top-right -->
  <circle cx="23" cy="8" r="4" fill="#4ede80"/>
  <path d="M23,4.5 L23.7,7 L26.5,8 L23.7,9 L23,11.5 L22.3,9 L19.5,8 L22.3,7 Z"
    fill="#ffffff" opacity="0.95"/>
</svg>
